<svg width="300" height="300" overflow="hidden"><defs></defs><g transform="matrix(9.09718843449234,0,0,-9.09718843449234,114.47398279620123,288.3891570631667)"><g><path d="M 31.31834783703519 2.641155832791338 L 27.60212857363019 -0.7050415986815196" stroke="#000000" stroke-width="0.5000269624546816" stroke-dasharray="" fill="#000000" fill-opacity="1"></path><path d="M 28.64224880023288 -4.469451007948457 C 29.134563641155914 -4.469451007948457 29.378248892401892 -4.765404979751542 29.378248892401892 -4.765404979751542 29.621698698960675 -5.061123506867434 29.621698698960675 -5.595112057423836 29.621698698960675 -5.595112057423836 29.621698698960675 -5.8571619942709585 29.563072971849323 -6.063411540253061 29.563072971849323 -6.063411540253061 29.50444724473797 -6.269661086235164 29.385783122392105 -6.417284905105915 29.385783122392105 -6.417284905105915 29.267119000046236 -6.564932268445386 29.079469584352477 -6.643570793968243 29.079469584352477 -6.643570793968243 28.891820168658715 -6.722209319491099 28.64224880023288 -6.722209319491099 28.64224880023288 -6.722209319491099 28.392441987119856 -6.722209319491099 28.204792571426093 -6.643570793968243 28.204792571426093 -6.643570793968243 28.01714315573233 -6.564932268445386 27.898479033386465 -6.417284905105915 27.898479033386465 -6.417284905105915 27.78005035572779 -6.269661086235164 27.721306906272844 -6.063411540253061 27.721306906272844 -6.063411540253061 27.662681179161492 -5.8571619942709585 27.662681179161492 -5.595112057423836 27.662681179161492 -5.595112057423836 27.662681179161492 -5.061123506867434 27.906248708063874 -4.765404979751542 27.906248708063874 -4.765404979751542 28.149698514622656 -4.469451007948457 28.64224880023288 -4.469451007948457 28.64224880023288 -4.469451007948457 Z M 28.64224880023288 -4.836273830596991 C 28.533237910061978 -4.836273830596991 28.450361380169625 -4.875593093358419 28.450361380169625 -4.875593093358419 28.367720294964467 -4.914912356119848 28.315216129720163 -4.981307757908606 28.315216129720163 -4.981307757908606 28.262711964475862 -5.047467715010171 28.23045604233026 -5.146119038944533 28.23045604233026 -5.146119038944533 28.197964675497463 -5.244770362878895 28.18477977301459 -5.353074918988217 28.18477977301459 -5.353074918988217 28.17183031521891 -5.461379475097541 28.17183031521891 -5.595112057423836 28.17183031521891 -5.595112057423836 28.17183031521891 -5.728844639750131 28.18477977301459 -5.837149195859453 28.18477977301459 -5.837149195859453 28.197964675497463 -5.945453751968777 28.23045604233026 -6.044105075903138 28.23045604233026 -6.044105075903138 28.262711964475862 -6.1427563998375 28.315216129720163 -6.209622691000647 28.315216129720163 -6.209622691000647 28.367720294964467 -6.276488982163795 28.450361380169625 -6.315808244925223 28.450361380169625 -6.315808244925223 28.533237910061978 -6.355127507686651 28.64224880023288 -6.355127507686651 28.64224880023288 -6.355127507686651 28.75125969040379 -6.355127507686651 28.833900775608946 -6.315808244925223 28.833900775608946 -6.315808244925223 28.916777305501295 -6.276488982163795 28.969046026058404 -6.209622691000647 28.969046026058404 -6.209622691000647 29.02155019130271 -6.1427563998375 29.054041558135502 -6.044105075903138 29.054041558135502 -6.044105075903138 29.086297480281107 -5.945453751968777 29.09948238276398 -5.837149195859453 29.09948238276398 -5.837149195859453 29.112667285246854 -5.728844639750131 29.112667285246854 -5.595112057423836 29.112667285246854 -5.595112057423836 29.112667285246854 -5.461379475097541 29.09948238276398 -5.353074918988217 29.09948238276398 -5.353074918988217 29.086297480281107 -5.244770362878895 29.054041558135502 -5.146119038944533 29.054041558135502 -5.146119038944533 29.02155019130271 -5.047467715010171 28.969046026058404 -4.981307757908606 28.969046026058404 -4.981307757908606 28.916777305501295 -4.914912356119848 28.833900775608946 -4.875593093358419 28.833900775608946 -4.875593093358419 28.75125969040379 -4.836273830596991 28.64224880023288 -4.836273830596991 28.64224880023288 -4.836273830596991 Z" stroke="none" fill="#FF0000" fill-opacity="1"></path><path d="M 27.113038411561735 -0.8090501394342423 L 27.807232817999676 -4.073432586246499 M 28.091218735698643 -0.6010330579287969 L 28.785413142136584 -3.865415504741053" stroke="#000000" stroke-width="0.5000269624546816" stroke-dasharray="" fill="#000000" fill-opacity="1"></path><path d="M 27.60212857363019 -0.7050415986815196 L 22.84684800379951 0.8405495938891024" stroke="#000000" stroke-width="0.5000269624546816" stroke-dasharray="" fill="#000000" fill-opacity="1"></path><path d="M 22.84684800379951 0.8405495938891024 L 20.281145050030737 -1.0236286461915964" stroke="#000000" stroke-width="0.5000269624546816" stroke-dasharray="" fill="#000000" fill-opacity="1"></path><path d="M 18.801668188848264 -0.9722446666870748 C 19.293983029771297 -0.9722446666870748 19.537668281017275 -1.2681986384901602 19.537668281017275 -1.2681986384901602 19.781118087576058 -1.5639171656060513 19.781118087576058 -2.0979057161624537 19.781118087576058 -2.0979057161624537 19.781118087576058 -2.359955653009577 19.722492360464706 -2.566205198991679 19.722492360464706 -2.566205198991679 19.663866633353354 -2.7724547449737815 19.54520251100749 -2.920078563844533 19.54520251100749 -2.920078563844533 19.42653838866162 -3.067725927184004 19.23888897296786 -3.14636445270686 19.23888897296786 -3.14636445270686 19.051239557274098 -3.2250029782297167 18.801668188848264 -3.2250029782297167 18.801668188848264 -3.2250029782297167 18.55186137573524 -3.2250029782297167 18.364211960041477 -3.14636445270686 18.364211960041477 -3.14636445270686 18.176562544347714 -3.067725927184004 18.05789842200185 -2.920078563844533 18.05789842200185 -2.920078563844533 17.939469744343175 -2.7724547449737815 17.880726294888227 -2.566205198991679 17.880726294888227 -2.566205198991679 17.822100567776875 -2.359955653009577 17.822100567776875 -2.0979057161624537 17.822100567776875 -2.0979057161624537 17.822100567776875 -1.5639171656060513 18.065668096679257 -1.2681986384901602 18.065668096679257 -1.2681986384901602 18.30911790323804 -0.9722446666870748 18.801668188848264 -0.9722446666870748 18.801668188848264 -0.9722446666870748 Z M 18.801668188848264 -1.3390674893356087 C 18.69265729867736 -1.3390674893356087 18.609780768785008 -1.3783867520970368 18.609780768785008 -1.3783867520970368 18.52713968357985 -1.417706014858465 18.474635518335546 -1.484101416647224 18.474635518335546 -1.484101416647224 18.422131353091245 -1.550261373748789 18.389875430945644 -1.6489126976831505 18.389875430945644 -1.6489126976831505 18.357384064112846 -1.7475640216175126 18.344199161629973 -1.8558685777268356 18.344199161629973 -1.8558685777268356 18.331249703834292 -1.9641731338361588 18.331249703834292 -2.0979057161624537 18.331249703834292 -2.0979057161624537 18.331249703834292 -2.231638298488748 18.344199161629973 -2.339942854598071 18.344199161629973 -2.339942854598071 18.357384064112846 -2.4482474107073946 18.389875430945644 -2.5468987346417564 18.389875430945644 -2.5468987346417564 18.422131353091245 -2.6455500585761182 18.474635518335546 -2.7124163497392657 18.474635518335546 -2.7124163497392657 18.52713968357985 -2.7792826409024127 18.609780768785008 -2.8186019036638412 18.609780768785008 -2.8186019036638412 18.69265729867736 -2.8579211664252693 18.801668188848264 -2.8579211664252693 18.801668188848264 -2.8579211664252693 18.91067907901917 -2.8579211664252693 18.99332016422433 -2.8186019036638412 18.99332016422433 -2.8186019036638412 19.07619669411668 -2.7792826409024127 19.128465414673787 -2.7124163497392657 19.128465414673787 -2.7124163497392657 19.18096957991809 -2.6455500585761182 19.213460946750885 -2.5468987346417564 19.213460946750885 -2.5468987346417564 19.24571686889649 -2.4482474107073946 19.258901771379364 -2.339942854598071 19.258901771379364 -2.339942854598071 19.272086673862237 -2.231638298488748 19.272086673862237 -2.0979057161624537 19.272086673862237 -2.0979057161624537 19.272086673862237 -1.9641731338361588 19.258901771379364 -1.8558685777268356 19.258901771379364 -1.8558685777268356 19.24571686889649 -1.7475640216175126 19.213460946750885 -1.6489126976831505 19.213460946750885 -1.6489126976831505 19.18096957991809 -1.550261373748789 19.128465414673787 -1.484101416647224 19.128465414673787 -1.484101416647224 19.07619669411668 -1.417706014858465 18.99332016422433 -1.3783867520970368 18.99332016422433 -1.3783867520970368 18.91067907901917 -1.3390674893356087 18.801668188848264 -1.3390674893356087 18.801668188848264 -1.3390674893356087 Z" stroke="none" fill="#FF0000" fill-opacity="1"></path><path d="M 17.322073605322192 -1.023628646191594 L 14.756370651553421 0.8405495938891024" stroke="#000000" stroke-width="0.5000269624546816" stroke-dasharray="" fill="#000000" fill-opacity="1"></path><path d="M 9.063743869640131 0.03166482754907207 L 9.063743869640131 -0.5131541786182625 9.255395845016194 -0.5131541786182625 C 9.71074587004974 -0.5131541786182625 9.71074587004974 -0.2277952177389151 9.71074587004974 -0.2277952177389151 9.71074587004974 -0.10206775477722263 9.648588472630475 -0.04838636609694946 9.648588472630475 -0.04838636609694946 9.557471378686328 0.03166482754907207 9.258221181262524 0.03166482754907207 9.258221181262524 0.03166482754907207 Z M 9.227848816614475 -1.4431606930352767 C 9.456936497254413 -1.4431606930352767 9.507792549688356 -1.4292694564908202 9.507792549688356 -1.4292694564908202 9.558884046809494 -1.4156136646335575 9.597496975509339 -1.401722428089101 9.597496975509339 -1.401722428089101 9.636109904209185 -1.3878311915446442 9.658241704805437 -1.3659348356355854 9.658241704805437 -1.3659348356355854 9.68037350540169 -1.3438030350393324 9.699679969751614 -1.313430670391283 9.699679969751614 -1.313430670391283 9.736880230328294 -1.2583366135878449 9.736880230328294 -1.151915614976075 9.736880230328294 -1.151915614976075 9.736880230328294 -1.0457300610514995 9.70509519755708 -0.9802764380115171 9.70509519755708 -0.9802764380115171 9.67354560947306 -0.9148228149715348 9.605737539561135 -0.8802124459539903 9.605737539561135 -0.8802124459539903 9.491311421584763 -0.8237057210273869 9.252570508769864 -0.8237057210273869 9.252570508769864 -0.8237057210273869 L 9.063743869640131 -0.8237057210273869 9.063743869640131 -1.4431606930352767 Z M 9.13131649486486 0.3834191902171784 C 9.506615326252385 0.3834191902171784 9.690026737576652 0.33303402715762376 9.690026737576652 0.33303402715762376 9.873438148900918 0.28264886409806866 9.961729906598737 0.2207269113659991 9.961729906598737 0.2207269113659991 10.160445222590626 0.08275632467020944 10.160445222590626 -0.19318484872137076 10.160445222590626 -0.19318484872137076 10.160445222590626 -0.3780089281688026 10.02671264026433 -0.5016173889457476 10.02671264026433 -0.5016173889457476 9.892744613250843 -0.6249904050354982 9.688614069453488 -0.6457095375085862 9.688614069453488 -0.6457095375085862 10.090047261119565 -0.7064542668046849 10.19623281504414 -0.9313039430751275 10.19623281504414 -0.9313039430751275 10.239083748113481 -1.0224210370192757 10.239083748113481 -1.1568599534071526 10.239083748113481 -1.1568599534071526 10.239083748113481 -1.29129886979503 10.194820146920975 -1.403135096212266 10.194820146920975 -1.403135096212266 10.150791990415664 -1.5147358779423077 10.072153464892807 -1.587959175659698 10.072153464892807 -1.587959175659698 9.993514939369952 -1.661064751033491 9.873438148900918 -1.707965332722572 9.873438148900918 -1.707965332722572 9.656829036682273 -1.7935023875802178 9.29683410996237 -1.7935023875802178 9.29683410996237 -1.7935023875802178 L 8.554712455926312 -1.7935023875802178 8.554712455926312 0.3834191902171784 Z M 10.96215792695553 -0.44699422151669754 C 10.993942959726745 -0.36435313631154 11.036558448108892 -0.32150220324219925 11.036558448108892 -0.32150220324219925 11.083647385547728 -0.27606137861372226 11.126262873929875 -0.2553422461406343 11.126262873929875 -0.2553422461406343 11.173351811368711 -0.23179777742121632 11.242101660029412 -0.21107864494812834 11.242101660029412 -0.21107864494812834 11.311086953377307 -0.19035951247504035 11.446467648513961 -0.19035951247504035 11.446467648513961 -0.19035951247504035 L 11.446467648513961 -0.6028586044392452 C 11.3760696870429 -0.5781369122838562 11.289190597468249 -0.5781369122838562 11.289190597468249 -0.5781369122838562 11.13050087829937 -0.5781369122838562 10.976049163499987 -0.6953883665065583 10.976049163499987 -0.6953883665065583 L 10.976049163499987 -1.7935023875802178 10.491739441941558 -1.7935023875802178 10.491739441941558 -0.19318484872137076 10.907063870152093 -0.19318484872137076 Z" stroke="none" fill="#CC3333" fill-opacity="1"></path><path d="M 14.756370651553421 0.8405495938891024 L 11.94649461096864 -0.07263796172519255" stroke="#000000" stroke-width="0.5000269624546816" stroke-dasharray="" fill="#000000" fill-opacity="1"></path><path d="M 14.756370651553421 0.8405495938891024 L 16.301461814621433 5.595830163719778 M 15.974247801728866 1.3525439299077149 L 17.02128558515335 4.5749806031655815" stroke="#000000" stroke-width="0.5000269624546816" stroke-dasharray="" fill="#000000" fill-opacity="1"></path><path d="M 16.301461814621433 5.595830163719778 L 21.301756840731503 5.595830163719778" stroke="#000000" stroke-width="0.5000269624546816" stroke-dasharray="" fill="#000000" fill-opacity="1"></path><path d="M 22.84684800379951 0.8405495938891024 L 21.301756840731503 5.595830163719778 M 21.628970853624065 1.3525439299077158 L 20.581933070199586 4.574980603165582" stroke="#000000" stroke-width="0.5000269624546816" stroke-dasharray="" fill="#000000" fill-opacity="1"></path></g><g><ellipse cx="31.31834783703519" cy="2.641155832791338" rx="1.0500566211548312" ry="1.0500566211548312" stroke="none" fill="#000000" fill-opacity="0"></ellipse><ellipse cx="27.60212857363019" cy="-0.7050415986815196" rx="1.0500566211548312" ry="1.0500566211548312" stroke="none" fill="#000000" fill-opacity="0"></ellipse><ellipse cx="28.642189939061083" cy="-5.595830163719778" rx="1.0500566211548312" ry="1.0500566211548312" stroke="none" fill="#000000" fill-opacity="0"></ellipse><ellipse cx="22.84684800379951" cy="0.8405495938891024" rx="1.0500566211548312" ry="1.0500566211548312" stroke="none" fill="#000000" fill-opacity="0"></ellipse><ellipse cx="18.801609327676466" cy="-2.0986238224583955" rx="1.0500566211548312" ry="1.0500566211548312" stroke="none" fill="#000000" fill-opacity="0"></ellipse><ellipse cx="14.756370651553421" cy="0.8405495938891024" rx="1.0500566211548312" ry="1.0500566211548312" stroke="none" fill="#000000" fill-opacity="0"></ellipse><ellipse cx="10.000590052220137" cy="-0.7050415986815196" rx="1.0500566211548312" ry="1.0500566211548312" stroke="none" fill="#000000" fill-opacity="0"></ellipse><ellipse cx="16.301461814621433" cy="5.595830163719778" rx="1.0500566211548312" ry="1.0500566211548312" stroke="none" fill="#000000" fill-opacity="0"></ellipse><ellipse cx="21.301756840731503" cy="5.595830163719778" rx="1.0500566211548312" ry="1.0500566211548312" stroke="none" fill="#000000" fill-opacity="0"></ellipse><ellipse cx="29.46023820533269" cy="0.9680571170549093" rx="1.0500566211548312" ry="1.0500566211548312" stroke="none" fill="#000000" fill-opacity="0"></ellipse><ellipse cx="28.122159256345636" cy="-3.1504358812006483" rx="1.0500566211548312" ry="1.0500566211548312" stroke="none" fill="#000000" fill-opacity="0"></ellipse><ellipse cx="25.224488288714852" cy="0.06775399760379142" rx="1.0500566211548312" ry="1.0500566211548312" stroke="none" fill="#000000" fill-opacity="0"></ellipse><ellipse cx="20.82422866573799" cy="-0.6290371142846466" rx="1.0500566211548312" ry="1.0500566211548312" stroke="none" fill="#000000" fill-opacity="0"></ellipse><ellipse cx="16.778989989614942" cy="-0.6290371142846465" rx="1.0500566211548312" ry="1.0500566211548312" stroke="none" fill="#000000" fill-opacity="0"></ellipse><ellipse cx="12.378480351886779" cy="0.06775399760379142" rx="1.0500566211548312" ry="1.0500566211548312" stroke="none" fill="#000000" fill-opacity="0"></ellipse><ellipse cx="15.528916233087427" cy="3.21818987880444" rx="1.0500566211548312" ry="1.0500566211548312" stroke="none" fill="#000000" fill-opacity="0"></ellipse><ellipse cx="18.801609327676466" cy="5.595830163719778" rx="1.0500566211548312" ry="1.0500566211548312" stroke="none" fill="#000000" fill-opacity="0"></ellipse><ellipse cx="22.074302422265507" cy="3.21818987880444" rx="1.0500566211548312" ry="1.0500566211548312" stroke="none" fill="#000000" fill-opacity="0"></ellipse></g></g></svg>
